<svg version="1.1" id="Layer_1" xmlns="http://www.w3.org/2000/svg" xmlns:xlink="http://www.w3.org/1999/xlink" x="0px" y="0px"
	 width="100%" viewBox="0 0 1025 407" enable-background="new 0 0 1025 407" xml:space="preserve">
<path fill="#019041" opacity="1.000000" stroke="none" 
	d="
M644.000000,408.000000 
	C429.333344,408.000000 215.166672,408.000000 1.000000,408.000000 
	C1.000000,272.333344 1.000000,136.666672 1.000000,1.000000 
	C342.666656,1.000000 684.333313,1.000000 1026.000000,1.000000 
	C1026.000000,136.666672 1026.000000,272.333344 1026.000000,408.000000 
	C898.833313,408.000000 771.666687,408.000000 644.000000,408.000000 
M492.499695,296.546021 
	C499.498993,296.546417 506.498444,296.514069 513.497498,296.553680 
	C531.281738,296.654358 548.130920,292.980316 563.757141,284.258301 
	C602.553223,262.603699 620.742737,213.658401 604.030273,171.870117 
	C589.633789,135.872818 562.329041,116.489136 524.403870,113.160339 
	C503.232422,111.302071 481.781738,112.619316 460.456726,112.537132 
	C459.496826,112.533432 458.535736,112.842232 457.379944,113.038658 
	C457.379944,174.114853 457.379944,235.027664 457.379944,296.545929 
	C468.911530,296.545929 480.205597,296.545929 492.499695,296.546021 
M403.444061,115.770531 
	C403.680023,111.552315 400.516235,112.529625 398.244843,112.527046 
	C362.094147,112.486031 325.943451,112.496613 289.792725,112.518448 
	C288.218597,112.519394 286.644623,112.741280 285.093719,112.858490 
	C285.093719,174.143936 285.093719,234.879776 285.093719,295.797211 
	C324.596588,295.797211 363.794952,295.797211 403.217712,295.797211 
	C403.217712,284.151917 403.217712,272.885406 403.217712,261.067108 
	C376.092010,261.067108 349.194519,261.067108 322.225372,261.067108 
	C322.225372,247.838470 322.225372,235.166580 322.225372,221.999435 
	C349.421539,221.999435 376.168213,221.999435 403.060486,221.999435 
	C403.060486,210.127243 403.060486,198.762817 403.060486,186.840134 
	C375.780792,186.840134 348.889313,186.840134 322.095673,186.840134 
	C322.095673,173.510788 322.095673,160.745667 322.095673,147.307037 
	C349.275177,147.307037 376.140106,147.307037 403.451172,147.307037 
	C403.451172,136.664307 403.451172,126.695221 403.444061,115.770531 
M920.992798,152.756149 
	C920.605042,151.498154 920.520264,150.016678 919.782715,149.016647 
	C912.212952,138.752930 903.057617,130.258499 892.005920,123.745110 
	C870.979065,111.352791 848.371277,107.557976 824.771484,112.765770 
	C794.172058,119.518196 771.892151,137.414505 759.128662,166.272659 
	C744.983582,198.254745 748.011536,229.403641 767.904968,257.598511 
	C790.939270,290.244995 823.556458,302.903839 862.909241,295.719543 
	C887.639465,291.204773 907.099487,277.657776 921.758301,256.583466 
	C911.546814,249.621826 901.602783,242.842453 891.671814,236.072067 
	C866.615967,268.720184 827.154480,265.914703 805.652588,245.640152 
	C782.469421,223.780182 781.764709,187.435272 803.532104,165.044662 
	C814.382263,153.883835 827.528809,147.977875 843.039795,147.700745 
	C863.491150,147.335327 879.395569,156.323700 891.657593,172.698898 
	C901.486206,166.022202 910.959839,159.586655 920.992798,152.756149 
M115.535141,112.647949 
	C102.806030,112.647949 90.076920,112.647949 77.417694,112.647949 
	C77.332397,113.718483 77.193687,114.083817 77.296928,114.358093 
	C99.309227,172.837708 121.398903,231.288361 143.259766,289.824493 
	C145.131165,294.835449 147.606171,296.959686 152.940536,296.262756 
	C156.381485,295.813263 159.928864,296.179169 163.428543,296.178467 
	C175.909729,296.175934 175.906479,296.174530 180.299210,284.512848 
	C198.458710,236.303772 216.625961,188.097610 234.776016,139.884979 
	C238.089951,131.082092 241.336823,122.253952 244.711380,113.177238 
	C243.484024,112.852730 242.876190,112.553543 242.267410,112.551575 
	C230.935349,112.514893 219.599609,112.377579 208.275467,112.674469 
	C206.836517,112.712196 204.741058,114.795738 204.157867,116.377037 
	C193.121216,146.302521 182.274017,176.297821 171.369308,206.272034 
	C168.119415,215.205139 164.814575,224.118286 161.141556,234.110657 
	C159.951904,231.396072 159.151077,229.813736 158.549347,228.158997 
	C149.377838,202.937698 140.274414,177.691544 131.063660,152.484619 
	C126.234253,139.268051 121.227318,126.116348 115.535141,112.647949 
M662.178894,269.499939 
	C662.178894,278.270782 662.178894,287.041626 662.178894,295.697357 
	C674.815369,295.697357 686.869019,295.697357 698.765869,295.697357 
	C698.765869,234.575424 698.765869,173.884048 698.765869,112.606773 
	C686.238892,116.595184 674.251770,120.411705 662.433044,124.174622 
	C662.314087,124.895233 662.212830,125.222450 662.212708,125.549698 
	C662.196655,173.199768 662.187927,220.849838 662.178894,269.499939 
z"/>
<path fill="#E9F9F3" opacity="1.000000" stroke="none" 
	d="
M491.999695,296.545959 
	C480.205597,296.545929 468.911530,296.545929 457.379944,296.545929 
	C457.379944,235.027664 457.379944,174.114853 457.379944,113.038658 
	C458.535736,112.842232 459.496826,112.533432 460.456726,112.537132 
	C481.781738,112.619316 503.232422,111.302071 524.403870,113.160339 
	C562.329041,116.489136 589.633789,135.872818 604.030273,171.870117 
	C620.742737,213.658401 602.553223,262.603699 563.757141,284.258301 
	C548.130920,292.980316 531.281738,296.654358 513.497498,296.553680 
	C506.498444,296.514069 499.498993,296.546417 491.999695,296.545959 
M571.542847,190.183426 
	C565.376892,169.977478 552.134521,156.417648 531.716736,151.602936 
	C521.380310,149.165482 510.238647,150.248032 499.485107,149.424789 
	C494.882233,149.072403 494.014465,150.869553 494.035889,155.105515 
	C494.202820,188.076706 494.129028,221.049103 494.129639,254.021133 
	C494.129669,255.644089 494.129669,257.267029 494.129669,258.503021 
	C505.620667,258.503021 516.621643,259.319611 527.421143,258.197662 
	C533.929871,257.521454 540.739014,254.815552 546.353271,251.319565 
	C568.357483,237.617432 576.523987,217.464233 571.542847,190.183426 
z"/>
<path fill="#EAFAF4" opacity="1.000000" stroke="none" 
	d="
M403.447632,116.248337 
	C403.451172,126.695221 403.451172,136.664307 403.451172,147.307037 
	C376.140106,147.307037 349.275177,147.307037 322.095673,147.307037 
	C322.095673,160.745667 322.095673,173.510788 322.095673,186.840134 
	C348.889313,186.840134 375.780792,186.840134 403.060486,186.840134 
	C403.060486,198.762817 403.060486,210.127243 403.060486,221.999435 
	C376.168213,221.999435 349.421539,221.999435 322.225372,221.999435 
	C322.225372,235.166580 322.225372,247.838470 322.225372,261.067108 
	C349.194519,261.067108 376.092010,261.067108 403.217712,261.067108 
	C403.217712,272.885406 403.217712,284.151917 403.217712,295.797211 
	C363.794952,295.797211 324.596588,295.797211 285.093719,295.797211 
	C285.093719,234.879776 285.093719,174.143936 285.093719,112.858490 
	C286.644623,112.741280 288.218597,112.519394 289.792725,112.518448 
	C325.943451,112.496613 362.094147,112.486031 398.244843,112.527046 
	C400.516235,112.529625 403.680023,111.552315 403.447632,116.248337 
z"/>
<path fill="#E9F9F3" opacity="1.000000" stroke="none" 
	d="
M920.713135,152.953644 
	C910.959839,159.586655 901.486206,166.022202 891.657593,172.698898 
	C879.395569,156.323700 863.491150,147.335327 843.039795,147.700745 
	C827.528809,147.977875 814.382263,153.883835 803.532104,165.044662 
	C781.764709,187.435272 782.469421,223.780182 805.652588,245.640152 
	C827.154480,265.914703 866.615967,268.720184 891.671814,236.072067 
	C901.602783,242.842453 911.546814,249.621826 921.758301,256.583466 
	C907.099487,277.657776 887.639465,291.204773 862.909241,295.719543 
	C823.556458,302.903839 790.939270,290.244995 767.904968,257.598511 
	C748.011536,229.403641 744.983582,198.254745 759.128662,166.272659 
	C771.892151,137.414505 794.172058,119.518196 824.771484,112.765770 
	C848.371277,107.557976 870.979065,111.352791 892.005920,123.745110 
	C903.057617,130.258499 912.212952,138.752930 919.782715,149.016647 
	C920.520264,150.016678 920.605042,151.498154 920.713135,152.953644 
z"/>
<path fill="#E9F9F3" opacity="1.000000" stroke="none" 
	d="
M115.917847,112.791649 
	C121.227318,126.116348 126.234253,139.268051 131.063660,152.484619 
	C140.274414,177.691544 149.377838,202.937698 158.549347,228.158997 
	C159.151077,229.813736 159.951904,231.396072 161.141556,234.110657 
	C164.814575,224.118286 168.119415,215.205139 171.369308,206.272034 
	C182.274017,176.297821 193.121216,146.302521 204.157867,116.377037 
	C204.741058,114.795738 206.836517,112.712196 208.275467,112.674469 
	C219.599609,112.377579 230.935349,112.514893 242.267410,112.551575 
	C242.876190,112.553543 243.484024,112.852730 244.711380,113.177238 
	C241.336823,122.253952 238.089951,131.082092 234.776016,139.884979 
	C216.625961,188.097610 198.458710,236.303772 180.299210,284.512848 
	C175.906479,296.174530 175.909729,296.175934 163.428543,296.178467 
	C159.928864,296.179169 156.381485,295.813263 152.940536,296.262756 
	C147.606171,296.959686 145.131165,294.835449 143.259766,289.824493 
	C121.398903,231.288361 99.309227,172.837708 77.296928,114.358093 
	C77.193687,114.083817 77.332397,113.718483 77.417694,112.647949 
	C90.076920,112.647949 102.806030,112.647949 115.917847,112.791649 
z"/>
<path fill="#E8F9F2" opacity="1.000000" stroke="none" 
	d="
M662.178894,268.999939 
	C662.187927,220.849838 662.196655,173.199768 662.212708,125.549698 
	C662.212830,125.222450 662.314087,124.895233 662.433044,124.174622 
	C674.251770,120.411705 686.238892,116.595184 698.765869,112.606773 
	C698.765869,173.884048 698.765869,234.575424 698.765869,295.697357 
	C686.869019,295.697357 674.815369,295.697357 662.178894,295.697357 
	C662.178894,287.041626 662.178894,278.270782 662.178894,268.999939 
z"/>
<path fill="#039043" opacity="1.000000" stroke="none" 
	d="
M571.653931,190.585968 
	C576.523987,217.464233 568.357483,237.617432 546.353271,251.319565 
	C540.739014,254.815552 533.929871,257.521454 527.421143,258.197662 
	C516.621643,259.319611 505.620667,258.503021 494.129669,258.503021 
	C494.129669,257.267029 494.129669,255.644089 494.129639,254.021133 
	C494.129028,221.049103 494.202820,188.076706 494.035889,155.105515 
	C494.014465,150.869553 494.882233,149.072403 499.485107,149.424789 
	C510.238647,150.248032 521.380310,149.165482 531.716736,151.602936 
	C552.134521,156.417648 565.376892,169.977478 571.653931,190.585968 
z"/>
</svg>